<mxfile host="Electron" modified="2024-07-22T05:29:09.070Z" agent="Mozilla/5.0 (X11; Linux x86_64) AppleWebKit/537.36 (KHTML, like Gecko) draw.io/24.5.3 Chrome/124.0.6367.207 Electron/30.0.6 Safari/537.36" etag="nTj4rawRQ5q9fkvaR9MB" version="24.5.3" type="device">
  <diagram name="Page-1" id="NMiNUQKYLG8mAyh1BEJu">
    <mxGraphModel dx="778" dy="482" grid="1" gridSize="10" guides="1" tooltips="1" connect="1" arrows="1" fold="1" page="1" pageScale="1" pageWidth="1654" pageHeight="1169" math="0" shadow="0">
      <root>
        <mxCell id="0" />
        <mxCell id="1" parent="0" />
        <mxCell id="cJ97Pg6AMpjs9YtjIi1C-1" value="" style="rounded=0;whiteSpace=wrap;html=1;" vertex="1" parent="1">
          <mxGeometry x="120" y="120" width="40" height="520" as="geometry" />
        </mxCell>
        <mxCell id="cJ97Pg6AMpjs9YtjIi1C-2" value="" style="endArrow=classic;html=1;rounded=0;" edge="1" parent="1">
          <mxGeometry width="50" height="50" relative="1" as="geometry">
            <mxPoint x="200" y="120" as="sourcePoint" />
            <mxPoint x="200" y="280" as="targetPoint" />
          </mxGeometry>
        </mxCell>
        <mxCell id="cJ97Pg6AMpjs9YtjIi1C-3" value="Single Dimension" style="text;html=1;align=center;verticalAlign=middle;whiteSpace=wrap;rounded=0;" vertex="1" parent="1">
          <mxGeometry x="280" y="120" width="60" height="30" as="geometry" />
        </mxCell>
        <mxCell id="cJ97Pg6AMpjs9YtjIi1C-4" value="Sorted!" style="text;html=1;align=center;verticalAlign=middle;whiteSpace=wrap;rounded=0;" vertex="1" parent="1">
          <mxGeometry x="280" y="160" width="60" height="30" as="geometry" />
        </mxCell>
        <mxCell id="cJ97Pg6AMpjs9YtjIi1C-5" value="No missing ROW" style="text;html=1;align=center;verticalAlign=middle;whiteSpace=wrap;rounded=0;" vertex="1" parent="1">
          <mxGeometry x="280" y="200" width="60" height="30" as="geometry" />
        </mxCell>
        <mxCell id="cJ97Pg6AMpjs9YtjIi1C-6" value="classificaiton&lt;div&gt;&lt;br&gt;&lt;/div&gt;&lt;div&gt;age gender salary ..... ==&amp;gt; target&lt;/div&gt;&lt;div&gt;&lt;br&gt;&lt;/div&gt;&lt;div&gt;&lt;br&gt;&lt;/div&gt;&lt;div&gt;x (null) (there cannot be a null in a &quot;CELL&quot;)&lt;/div&gt;" style="rounded=0;whiteSpace=wrap;html=1;" vertex="1" parent="1">
          <mxGeometry x="760" y="230" width="250" height="180" as="geometry" />
        </mxCell>
        <mxCell id="cJ97Pg6AMpjs9YtjIi1C-7" value="No duplicate date!" style="text;html=1;align=center;verticalAlign=middle;whiteSpace=wrap;rounded=0;" vertex="1" parent="1">
          <mxGeometry x="280" y="260" width="60" height="30" as="geometry" />
        </mxCell>
        <mxCell id="cJ97Pg6AMpjs9YtjIi1C-8" value="34" style="text;html=1;align=center;verticalAlign=middle;whiteSpace=wrap;rounded=0;" vertex="1" parent="1">
          <mxGeometry x="110" y="120" width="60" height="30" as="geometry" />
        </mxCell>
        <mxCell id="cJ97Pg6AMpjs9YtjIi1C-9" value="89" style="text;html=1;align=center;verticalAlign=middle;whiteSpace=wrap;rounded=0;" vertex="1" parent="1">
          <mxGeometry x="110" y="290" width="60" height="30" as="geometry" />
        </mxCell>
        <mxCell id="cJ97Pg6AMpjs9YtjIi1C-10" value="80" style="text;html=1;align=center;verticalAlign=middle;whiteSpace=wrap;rounded=0;" vertex="1" parent="1">
          <mxGeometry x="110" y="320" width="60" height="30" as="geometry" />
        </mxCell>
        <mxCell id="cJ97Pg6AMpjs9YtjIi1C-11" value="78" style="text;html=1;align=center;verticalAlign=middle;whiteSpace=wrap;rounded=0;fillColor=#fff2cc;strokeColor=#d6b656;" vertex="1" parent="1">
          <mxGeometry x="110" y="350" width="60" height="30" as="geometry" />
        </mxCell>
        <mxCell id="cJ97Pg6AMpjs9YtjIi1C-14" value="" style="endArrow=classic;html=1;rounded=0;" edge="1" parent="1">
          <mxGeometry width="50" height="50" relative="1" as="geometry">
            <mxPoint x="100" y="370" as="sourcePoint" />
            <mxPoint x="100" y="340" as="targetPoint" />
            <Array as="points">
              <mxPoint x="40" y="350" />
            </Array>
          </mxGeometry>
        </mxCell>
        <mxCell id="cJ97Pg6AMpjs9YtjIi1C-15" value="" style="endArrow=classic;html=1;rounded=0;" edge="1" parent="1">
          <mxGeometry width="50" height="50" relative="1" as="geometry">
            <mxPoint x="100" y="350" as="sourcePoint" />
            <mxPoint x="100" y="310" as="targetPoint" />
            <Array as="points">
              <mxPoint x="40" y="330" />
            </Array>
          </mxGeometry>
        </mxCell>
        <mxCell id="cJ97Pg6AMpjs9YtjIi1C-16" value="" style="endArrow=classic;html=1;rounded=0;" edge="1" parent="1">
          <mxGeometry width="50" height="50" relative="1" as="geometry">
            <mxPoint x="100" y="355" as="sourcePoint" />
            <mxPoint x="100" y="280" as="targetPoint" />
            <Array as="points">
              <mxPoint x="40" y="335" />
            </Array>
          </mxGeometry>
        </mxCell>
        <mxCell id="cJ97Pg6AMpjs9YtjIi1C-17" value="autocorrelation&lt;div&gt;&lt;br&gt;&lt;/div&gt;&lt;div&gt;best correlation to LAGGED items (lag = N times before)&lt;/div&gt;" style="text;html=1;align=center;verticalAlign=middle;whiteSpace=wrap;rounded=0;" vertex="1" parent="1">
          <mxGeometry x="280" y="365" width="60" height="115" as="geometry" />
        </mxCell>
        <mxCell id="cJ97Pg6AMpjs9YtjIi1C-18" value="LAG = BEFORE&lt;div&gt;&lt;br&gt;&lt;/div&gt;&lt;div&gt;&lt;br&gt;&lt;/div&gt;&lt;div&gt;LAG5 = 5 periods before&lt;/div&gt;" style="text;html=1;align=center;verticalAlign=middle;whiteSpace=wrap;rounded=0;" vertex="1" parent="1">
          <mxGeometry x="410" y="170" width="130" height="120" as="geometry" />
        </mxCell>
        <mxCell id="cJ97Pg6AMpjs9YtjIi1C-19" value="90" style="text;html=1;align=center;verticalAlign=middle;whiteSpace=wrap;rounded=0;fillColor=#fff2cc;strokeColor=#d6b656;" vertex="1" parent="1">
          <mxGeometry x="100" y="570" width="80" height="30" as="geometry" />
        </mxCell>
        <mxCell id="cJ97Pg6AMpjs9YtjIi1C-20" value="90" style="text;html=1;align=center;verticalAlign=middle;whiteSpace=wrap;rounded=0;fillColor=#fff2cc;strokeColor=#d6b656;" vertex="1" parent="1">
          <mxGeometry x="100" y="540" width="80" height="30" as="geometry" />
        </mxCell>
        <mxCell id="cJ97Pg6AMpjs9YtjIi1C-21" value="100" style="text;html=1;align=center;verticalAlign=middle;whiteSpace=wrap;rounded=0;fillColor=#fff2cc;strokeColor=#d6b656;" vertex="1" parent="1">
          <mxGeometry x="90" y="600" width="100" height="30" as="geometry" />
        </mxCell>
        <mxCell id="cJ97Pg6AMpjs9YtjIi1C-25" value="" style="endArrow=classic;html=1;rounded=0;" edge="1" parent="1">
          <mxGeometry width="50" height="50" relative="1" as="geometry">
            <mxPoint x="400" y="560" as="sourcePoint" />
            <mxPoint x="680" y="560" as="targetPoint" />
          </mxGeometry>
        </mxCell>
        <mxCell id="cJ97Pg6AMpjs9YtjIi1C-26" value="" style="endArrow=none;html=1;rounded=0;" edge="1" parent="1">
          <mxGeometry width="50" height="50" relative="1" as="geometry">
            <mxPoint x="410" y="550" as="sourcePoint" />
            <mxPoint x="680" y="520" as="targetPoint" />
            <Array as="points">
              <mxPoint x="480" y="550" />
              <mxPoint x="500" y="530" />
              <mxPoint x="520" y="520" />
              <mxPoint x="540" y="530" />
              <mxPoint x="570" y="510" />
              <mxPoint x="590" y="520" />
              <mxPoint x="600" y="540" />
              <mxPoint x="620" y="530" />
              <mxPoint x="640" y="540" />
              <mxPoint x="650" y="520" />
              <mxPoint x="670" y="530" />
            </Array>
          </mxGeometry>
        </mxCell>
      </root>
    </mxGraphModel>
  </diagram>
</mxfile>
